<svg width="969" height="917" viewBox="0 0 969 917" fill="none" xmlns="http://www.w3.org/2000/svg">
<path d="M95.08 465.68V476.84C95.08 483.64 93.4 488.88 90.04 492.56C86.76 496.16 81.88 497.96 75.4 497.96C68.92 497.96 64 496.16 60.64 492.56C57.36 488.88 55.72 483.64 55.72 476.84V433.16C55.72 426.36 57.36 421.16 60.64 417.56C64 413.88 68.92 412.04 75.4 412.04C81.88 412.04 86.76 413.88 90.04 417.56C93.4 421.16 95.08 426.36 95.08 433.16V441.32H82.6V432.32C82.6 429.28 81.96 427.16 80.68 425.96C79.48 424.68 77.84 424.04 75.76 424.04C73.68 424.04 72 424.68 70.72 425.96C69.52 427.16 68.92 429.28 68.92 432.32V477.68C68.92 480.72 69.52 482.84 70.72 484.04C72 485.24 73.68 485.84 75.76 485.84C77.84 485.84 79.48 485.24 80.68 484.04C81.96 482.84 82.6 480.72 82.6 477.68V465.68H95.08ZM103.089 413H116.289V497H103.089V413ZM137.701 436.16V497H125.821V413H142.381L155.941 463.28V413H167.701V497H154.141L137.701 436.16ZM190.352 448.4H208.472V460.4H190.352V485H213.152V497H177.152V413H213.152V425H190.352V448.4Z" fill="#878789"/>
<path d="M278.244 465.68V476.84C278.244 483.64 276.564 488.88 273.204 492.56C269.924 496.16 265.044 497.96 258.564 497.96C252.084 497.96 247.164 496.16 243.804 492.56C240.524 488.88 238.884 483.64 238.884 476.84V433.16C238.884 426.36 240.524 421.16 243.804 417.56C247.164 413.88 252.084 412.04 258.564 412.04C265.044 412.04 269.924 413.88 273.204 417.56C276.564 421.16 278.244 426.36 278.244 433.16V441.32H265.764V432.32C265.764 429.28 265.124 427.16 263.844 425.96C262.644 424.68 261.004 424.04 258.924 424.04C256.844 424.04 255.164 424.68 253.884 425.96C252.684 427.16 252.084 429.28 252.084 432.32V477.68C252.084 480.72 252.684 482.84 253.884 484.04C255.164 485.24 256.844 485.84 258.924 485.84C261.004 485.84 262.644 485.24 263.844 484.04C265.124 482.84 265.764 480.72 265.764 477.68V465.68H278.244ZM299.453 448.4H317.573V460.4H299.453V485H322.253V497H286.253V413H322.253V425H299.453V448.4ZM342.193 436.16V497H330.313V413H346.873L360.433 463.28V413H372.193V497H358.633L342.193 436.16ZM377.804 413H418.604V425H404.804V497H391.604V425H377.804V413ZM452.017 497C451.857 496.44 451.697 495.92 451.537 495.44C451.377 494.96 451.217 494.36 451.057 493.64C450.977 492.92 450.897 492 450.817 490.88C450.817 489.76 450.817 488.36 450.817 486.68V473.48C450.817 469.56 450.137 466.8 448.777 465.2C447.417 463.6 445.217 462.8 442.177 462.8H437.617V497H424.417V413H444.337C451.217 413 456.177 414.6 459.217 417.8C462.337 421 463.897 425.84 463.897 432.32V438.92C463.897 447.56 461.017 453.24 455.257 455.96C458.617 457.32 460.897 459.56 462.097 462.68C463.377 465.72 464.017 469.44 464.017 473.84V486.8C464.017 488.88 464.097 490.72 464.257 492.32C464.417 493.84 464.817 495.4 465.457 497H452.017ZM437.617 425V450.8H442.777C445.257 450.8 447.177 450.16 448.537 448.88C449.977 447.6 450.697 445.28 450.697 441.92V433.64C450.697 430.6 450.137 428.4 449.017 427.04C447.977 425.68 446.297 425 443.977 425H437.617ZM484.818 477.68C484.818 480.72 485.418 482.88 486.618 484.16C487.898 485.36 489.578 485.96 491.658 485.96C493.738 485.96 495.378 485.36 496.578 484.16C497.858 482.88 498.498 480.72 498.498 477.68V432.32C498.498 429.28 497.858 427.16 496.578 425.96C495.378 424.68 493.738 424.04 491.658 424.04C489.578 424.04 487.898 424.68 486.618 425.96C485.418 427.16 484.818 429.28 484.818 432.32V477.68ZM471.618 433.16C471.618 426.36 473.338 421.16 476.778 417.56C480.218 413.88 485.178 412.04 491.658 412.04C498.138 412.04 503.098 413.88 506.538 417.56C509.978 421.16 511.698 426.36 511.698 433.16V476.84C511.698 483.64 509.978 488.88 506.538 492.56C503.098 496.16 498.138 497.96 491.658 497.96C485.178 497.96 480.218 496.16 476.778 492.56C473.338 488.88 471.618 483.64 471.618 476.84V433.16ZM562.879 497H549.559L547.279 481.76H531.079L528.799 497H516.679L530.119 413H549.439L562.879 497ZM532.759 470.36H545.479L539.119 427.88L532.759 470.36ZM596.987 472.64L605.987 413H624.347V497H611.867V436.76L602.747 497H590.267L580.427 437.6V497H568.907V413H587.267L596.987 472.64ZM647.148 448.4H665.268V460.4H647.148V485H669.948V497H633.948V413H669.948V425H647.148V448.4ZM705.728 497C705.568 496.44 705.408 495.92 705.248 495.44C705.088 494.96 704.928 494.36 704.768 493.64C704.688 492.92 704.608 492 704.528 490.88C704.528 489.76 704.528 488.36 704.528 486.68V473.48C704.528 469.56 703.848 466.8 702.488 465.2C701.128 463.6 698.928 462.8 695.888 462.8H691.328V497H678.128V413H698.048C704.928 413 709.888 414.6 712.928 417.8C716.048 421 717.608 425.84 717.608 432.32V438.92C717.608 447.56 714.728 453.24 708.968 455.96C712.328 457.32 714.608 459.56 715.808 462.68C717.088 465.72 717.728 469.44 717.728 473.84V486.8C717.728 488.88 717.808 490.72 717.968 492.32C718.128 493.84 718.528 495.4 719.168 497H705.728ZM691.328 425V450.8H696.488C698.968 450.8 700.888 450.16 702.248 448.88C703.688 447.6 704.408 445.28 704.408 441.92V433.64C704.408 430.6 703.848 428.4 702.728 427.04C701.688 425.68 700.008 425 697.688 425H691.328ZM726.409 413H739.609V497H726.409V413ZM787.541 465.68V476.84C787.541 483.64 785.861 488.88 782.501 492.56C779.221 496.16 774.341 497.96 767.861 497.96C761.381 497.96 756.461 496.16 753.101 492.56C749.821 488.88 748.181 483.64 748.181 476.84V433.16C748.181 426.36 749.821 421.16 753.101 417.56C756.461 413.88 761.381 412.04 767.861 412.04C774.341 412.04 779.221 413.88 782.501 417.56C785.861 421.16 787.541 426.36 787.541 433.16V441.32H775.061V432.32C775.061 429.28 774.421 427.16 773.141 425.96C771.941 424.68 770.301 424.04 768.221 424.04C766.141 424.04 764.461 424.68 763.181 425.96C761.981 427.16 761.381 429.28 761.381 432.32V477.68C761.381 480.72 761.981 482.84 763.181 484.04C764.461 485.24 766.141 485.84 768.221 485.84C770.301 485.84 771.941 485.24 773.141 484.04C774.421 482.84 775.061 480.72 775.061 477.68V465.68H787.541ZM838.27 497H824.95L822.67 481.76H806.47L804.19 497H792.07L805.51 413H824.83L838.27 497ZM808.15 470.36H820.87L814.51 427.88L808.15 470.36ZM856.177 436.16V497H844.297V413H860.857L874.417 463.28V413H886.177V497H872.617L856.177 436.16ZM907.748 477.68C907.748 480.72 908.348 482.88 909.548 484.16C910.828 485.36 912.508 485.96 914.588 485.96C916.668 485.96 918.308 485.36 919.508 484.16C920.788 482.88 921.428 480.72 921.428 477.68V432.32C921.428 429.28 920.788 427.16 919.508 425.96C918.308 424.68 916.668 424.04 914.588 424.04C912.508 424.04 910.828 424.68 909.548 425.96C908.348 427.16 907.748 429.28 907.748 432.32V477.68ZM894.548 433.16C894.548 426.36 896.268 421.16 899.708 417.56C903.148 413.88 908.108 412.04 914.588 412.04C921.068 412.04 926.028 413.88 929.468 417.56C932.908 421.16 934.628 426.36 934.628 433.16V476.84C934.628 483.64 932.908 488.88 929.468 492.56C926.028 496.16 921.068 497.96 914.588 497.96C908.108 497.96 903.148 496.16 899.708 492.56C896.268 488.88 894.548 483.64 894.548 476.84V433.16Z" fill="white"/>
<rect x="100" y="341" width="20" height="30" rx="3" fill="#D9D9D9"/>
<rect x="100" y="62" width="20" height="30" rx="3" fill="#D9D9D9"/>
<rect x="189" y="341" width="20" height="30" rx="3" fill="#D9D9D9"/>
<rect x="189" y="62" width="20" height="30" rx="3" fill="#D9D9D9"/>
<rect x="52" y="113" width="192" height="207" fill="#D9D9D9"/>
<rect x="100" y="598" width="192" height="206" fill="#D9D9D9"/>
<rect x="268" y="113" width="192" height="207" fill="#D9D9D9"/>
<rect x="316" y="598" width="192" height="206" fill="#D9D9D9"/>
<rect x="484" y="113" width="192" height="207" fill="#D9D9D9"/>
<rect x="531" y="598" width="192" height="206" fill="#D9D9D9"/>
<rect x="700" y="113" width="192" height="207" fill="#D9D9D9"/>
<rect x="747" y="598" width="192" height="206" fill="#D9D9D9"/>
<rect x="278" y="341" width="20" height="30" rx="3" fill="#D9D9D9"/>
<rect x="278" y="62" width="20" height="30" rx="3" fill="#D9D9D9"/>
<rect x="367" y="341" width="20" height="30" rx="3" fill="#D9D9D9"/>
<rect x="367" y="62" width="20" height="30" rx="3" fill="#D9D9D9"/>
<rect x="456" y="341" width="20" height="30" rx="3" fill="#D9D9D9"/>
<rect x="456" y="62" width="20" height="30" rx="3" fill="#D9D9D9"/>
<rect x="545" y="341" width="20" height="30" rx="3" fill="#D9D9D9"/>
<rect x="545" y="62" width="20" height="30" rx="3" fill="#D9D9D9"/>
<rect x="634" y="341" width="20" height="30" rx="3" fill="#D9D9D9"/>
<rect x="634" y="62" width="20" height="30" rx="3" fill="#D9D9D9"/>
<rect x="723" y="341" width="20" height="30" rx="3" fill="#D9D9D9"/>
<rect x="723" y="62" width="20" height="30" rx="3" fill="#D9D9D9"/>
<rect x="812" y="341" width="20" height="30" rx="3" fill="#D9D9D9"/>
<rect x="812" y="62" width="20" height="30" rx="3" fill="#D9D9D9"/>
<rect x="100" y="547" width="20" height="30" rx="3" fill="#D9D9D9"/>
<rect x="100" y="547" width="20" height="30" rx="3" fill="black" fill-opacity="0.3"/>
<rect x="100" y="826" width="20" height="30" rx="3" fill="#D9D9D9"/>
<rect x="100" y="826" width="20" height="30" rx="3" fill="black" fill-opacity="0.3"/>
<rect x="189" y="547" width="20" height="30" rx="3" fill="#D9D9D9"/>
<rect x="189" y="547" width="20" height="30" rx="3" fill="black" fill-opacity="0.3"/>
<rect x="189" y="826" width="20" height="30" rx="3" fill="#D9D9D9"/>
<rect x="189" y="826" width="20" height="30" rx="3" fill="black" fill-opacity="0.3"/>
<rect x="278" y="547" width="20" height="30" rx="3" fill="#D9D9D9"/>
<rect x="278" y="547" width="20" height="30" rx="3" fill="black" fill-opacity="0.3"/>
<rect x="278" y="826" width="20" height="30" rx="3" fill="#D9D9D9"/>
<rect x="278" y="826" width="20" height="30" rx="3" fill="black" fill-opacity="0.3"/>
<rect x="367" y="547" width="20" height="30" rx="3" fill="#D9D9D9"/>
<rect x="367" y="547" width="20" height="30" rx="3" fill="black" fill-opacity="0.3"/>
<rect x="367" y="826" width="20" height="30" rx="3" fill="#D9D9D9"/>
<rect x="367" y="826" width="20" height="30" rx="3" fill="black" fill-opacity="0.3"/>
<rect x="456" y="547" width="20" height="30" rx="3" fill="#D9D9D9"/>
<rect x="456" y="547" width="20" height="30" rx="3" fill="black" fill-opacity="0.3"/>
<rect x="456" y="826" width="20" height="30" rx="3" fill="#D9D9D9"/>
<rect x="456" y="826" width="20" height="30" rx="3" fill="black" fill-opacity="0.3"/>
<rect x="545" y="547" width="20" height="30" rx="3" fill="#D9D9D9"/>
<rect x="545" y="547" width="20" height="30" rx="3" fill="black" fill-opacity="0.3"/>
<rect x="545" y="826" width="20" height="30" rx="3" fill="#D9D9D9"/>
<rect x="545" y="826" width="20" height="30" rx="3" fill="black" fill-opacity="0.3"/>
<rect x="634" y="547" width="20" height="30" rx="3" fill="#D9D9D9"/>
<rect x="634" y="547" width="20" height="30" rx="3" fill="black" fill-opacity="0.3"/>
<rect x="634" y="826" width="20" height="30" rx="3" fill="#D9D9D9"/>
<rect x="634" y="826" width="20" height="30" rx="3" fill="black" fill-opacity="0.3"/>
<rect x="723" y="547" width="20" height="30" rx="3" fill="#D9D9D9"/>
<rect x="723" y="547" width="20" height="30" rx="3" fill="black" fill-opacity="0.3"/>
<rect x="723" y="826" width="20" height="30" rx="3" fill="#D9D9D9"/>
<rect x="723" y="826" width="20" height="30" rx="3" fill="black" fill-opacity="0.3"/>
<rect x="812" y="547" width="20" height="30" rx="3" fill="#D9D9D9"/>
<rect x="812" y="547" width="20" height="30" rx="3" fill="black" fill-opacity="0.3"/>
<rect x="812" y="826" width="20" height="30" rx="3" fill="#D9D9D9"/>
<rect x="812" y="826" width="20" height="30" rx="3" fill="black" fill-opacity="0.3"/>
<path d="M0.5 1.5H969" stroke="#D9D9D9" stroke-width="2"/>
<path d="M0.5 916H969" stroke="#D9D9D9" stroke-width="2"/>
</svg>
